<svg id="Capa_1" enable-background="new 0 0 512 512" height="512" viewBox="0 0 512 512" width="512" xmlns="http://www.w3.org/2000/svg"><g><path d="m272.5 178.5-16.5 333.5h-23c-5.523 0-10-4.477-10-10v-502h33z" fill="#e6f2f2"/><path d="m289 10v492c0 5.523-4.477 10-10 10h-23v-512h23c5.523 0 10 4.477 10 10z" fill="#cfe6e6"/><path d="m289 10v109h-33l-14-64 14-55h23c5.523 0 10 4.477 10 10z" fill="#00a98f"/><path d="m256 0v119h-190.9c-6.25 0-12.13-2.91-15.91-7.88l-30.1-39.5c-5.45-7.16-5.45-17.08 0-24.24l30.1-39.5c3.78-4.97 9.66-7.88 15.91-7.88z" fill="#00dc80"/><path d="m289 238v119h-33l-14-57.333 14-61.667z" fill="#ff7c48"/><path d="m256 238v119h-190.9c-6.25 0-12.13-2.91-15.91-7.88l-30.1-39.5c-5.45-7.16-5.45-17.08 0-24.24l30.1-39.5c3.78-4.97 9.66-7.88 15.91-7.88z" fill="#ffb555"/><path d="m256 119 16.5 59.5-16.5 59.5h-33v-119z" fill="#cf0d52"/><path d="m492.91 190.62-30.1 39.5c-3.78 4.97-9.66 7.88-15.91 7.88h-190.9v-119h190.9c6.25 0 12.13 2.91 15.91 7.88l30.1 39.5c5.45 7.16 5.45 17.08 0 24.24z" fill="#ad1634"/></g></svg>