<?xml version="1.0" encoding="iso-8859-1"?>
<!-- Generator: Adobe Illustrator 19.0.0, SVG Export Plug-In . SVG Version: 6.00 Build 0)  -->
<svg version="1.1" id="Capa_1" xmlns="http://www.w3.org/2000/svg" xmlns:xlink="http://www.w3.org/1999/xlink" x="0px" y="0px"
	 viewBox="0 0 473.677 473.677" style="enable-background:new 0 0 473.677 473.677;" xml:space="preserve">
<path style="fill:#214391;" d="M236.835,0v473.677c130.807,0,236.842-106.036,236.842-236.835C473.677,106.032,367.641,0,236.835,0z
	"/>
<path style="fill:#2B479D;" d="M236.835,0C106.036,0,0,106.032,0,236.842c0,130.799,106.036,236.835,236.835,236.835
	C367.641,473.677,367.641,0,236.835,0z"/>
<g>
	<polygon style="fill:#F8D12E;" points="236.431,41.075 242.208,58.853 260.906,58.853 245.78,69.84 251.557,87.618 236.431,76.624 
		221.308,87.618 227.086,69.84 211.955,58.853 230.653,58.853 	"/>
	<polygon style="fill:#F8D12E;" points="236.431,376.687 242.208,394.473 260.906,394.473 245.78,405.46 251.557,423.237 
		236.431,412.251 221.308,423.237 227.086,405.46 211.955,394.473 230.653,394.473 	"/>
	<polygon style="fill:#F8D12E;" points="328.54,70.82 334.314,88.602 353.012,88.602 337.885,99.596 343.663,117.374 328.54,106.38 
		313.414,117.374 319.191,99.596 304.068,88.602 322.766,88.602 	"/>
	<polygon style="fill:#F8D12E;" points="391.384,132.822 397.158,150.6 415.856,150.6 400.729,161.591 406.507,179.369 
		391.384,168.382 376.257,179.369 382.035,161.591 366.908,150.6 385.602,150.6 	"/>
	<polygon style="fill:#F8D12E;" points="392.88,289.473 398.654,307.258 417.351,307.258 402.225,318.245 408.006,336.019 
		392.88,325.036 377.753,336.019 383.531,318.245 368.404,307.258 387.102,307.258 	"/>
	<polygon style="fill:#F8D12E;" points="83.755,132.822 89.529,150.6 108.223,150.6 93.1,161.591 98.874,179.369 83.755,168.382 
		68.629,179.369 74.406,161.591 59.283,150.6 77.981,150.6 	"/>
	<polygon style="fill:#F8D12E;" points="405.949,207.531 411.723,225.309 430.421,225.309 415.295,236.296 421.072,254.078 
		405.949,243.095 390.823,254.078 396.604,236.296 381.474,225.309 400.168,225.309 	"/>
	<polygon style="fill:#F8D12E;" points="69.47,207.531 75.244,225.309 93.938,225.309 78.812,236.296 84.593,254.078 69.47,243.095 
		54.343,254.078 60.121,236.296 44.995,225.309 63.692,225.309 	"/>
	<polygon style="fill:#F8D12E;" points="81.728,289.473 87.502,307.258 106.196,307.258 91.074,318.245 96.847,336.019 
		81.728,325.036 66.602,336.019 72.379,318.245 57.253,307.258 75.951,307.258 	"/>
	<polygon style="fill:#F8D12E;" points="331.251,354.119 337.025,371.897 355.723,371.897 340.593,382.891 346.374,400.669 
		331.251,389.682 316.121,400.669 321.903,382.891 306.776,371.897 325.474,371.897 	"/>
	<polygon style="fill:#F8D12E;" points="147.306,70.82 153.079,88.602 171.777,88.602 156.651,99.596 162.432,117.374 
		147.306,106.38 132.183,117.374 137.96,99.596 122.834,88.602 141.528,88.602 	"/>
	<polygon style="fill:#F8D12E;" points="140.485,352.982 146.262,370.768 164.96,370.768 149.834,381.751 155.611,399.529 
		140.485,388.549 125.362,399.529 131.139,381.751 116.013,370.768 134.707,370.768 	"/>
</g>
<g>
</g>
<g>
</g>
<g>
</g>
<g>
</g>
<g>
</g>
<g>
</g>
<g>
</g>
<g>
</g>
<g>
</g>
<g>
</g>
<g>
</g>
<g>
</g>
<g>
</g>
<g>
</g>
<g>
</g>
</svg>
