<svg id="Layer_1" enable-background="new 0 0 511.948 511.948" height="512" viewBox="0 0 511.948 511.948" width="512" xmlns="http://www.w3.org/2000/svg"><g><g fill="#3c5a73"><ellipse cx="242.356" cy="401.185" rx="8.113" ry="8.113" transform="matrix(.383 -.924 .924 .383 -221.036 471.566)"/><circle cx="267.746" cy="401.185" r="8.113"/></g><path d="m236.108 251.502-43.46-27.119c-2.144-1.337-3.87-3.25-4.982-5.52l-22.685-46.308c-3.283-6.702-.511-14.796 6.191-18.08s14.796-.511 18.08 6.191l20.983 42.835 40.179 25.072c6.332 3.951 8.262 12.286 4.311 18.617-3.922 6.288-12.243 8.289-18.617 4.312z" fill="#ffb69e"/><g><path d="m242.356 300.669c-4.142 0-7.5-3.358-7.5-7.5v-48.505c0-4.142 3.358-7.5 7.5-7.5s7.5 3.358 7.5 7.5v48.505c0 4.142-3.358 7.5-7.5 7.5z" fill="#a5c8cd"/></g><g id="XMLID_4805_"><path d="m196.617 408.765c-8.73.001-15.808-7.076-15.808-15.806l-.01-127.823 17.228-14.014 14.625 14.014-.229 127.822c.001 8.729-7.076 15.807-15.806 15.807z" fill="#414b82"/></g><g id="XMLID_4801_"><path d="m157.669 408.765c-8.708 0-15.78-7.045-15.806-15.759l-.281-127.87c-.026-8.73 6.927-14.28 15.657-14.306h.049c8.708 0 15.708 5.592 15.735 14.306l.454 127.775c.026 8.73-7.029 15.829-15.759 15.855-.017-.001-.033-.001-.049-.001z" fill="#5f6e9b"/></g><g id="XMLID_4837_"><path d="m17.806 409.472c-8.514-2.015-13.781-10.551-11.766-19.064l14.271-60.285v-62.685c0-8.749 7.092-15.841 15.841-15.841s15.841 7.092 15.841 15.841v64.534c0 1.229-.143 2.453-.426 3.649l-14.697 62.085c-2.008 8.484-10.522 13.787-19.064 11.766z" fill="#ffb69e"/></g><g id="XMLID_4836_"><path d="m68.717 394.731-2.773-65.102-15.4-58.135c-2.241-8.457 2.799-17.129 11.256-19.369 8.456-2.242 17.129 2.799 19.369 11.256l15.841 59.798c.293 1.105.465 2.24.514 3.382l2.847 66.821c.372 8.741-6.412 16.128-15.152 16.501-8.743.372-16.13-6.411-16.502-15.152z" fill="#ffb69e"/></g><path d="m511.948 421.237v-22.887h-126.992l29.132-60.958h-40.73l-70.275 147.05h40.73l7.892-16.515h160.243v-22.887h-149.305l11.375-23.803z" fill="#46738c"/><path d="m511.948 74.917h-152.795c-28.931 0-52.385 23.453-52.385 52.385v179.263c0 28.931 23.453 52.385 52.385 52.385h152.796v-121.993l-9.756-57.243 9.756-57.243v-47.554z" fill="#e64937"/><path d="m511.948 122.472h-49.556l-25.005 3.861-17.553-3.861h-63.085c-9.122 0-16.517 7.395-16.517 16.517v81.45c0 9.123 7.395 16.518 16.517 16.518h15.085l23.866-5.059 18.692 5.059h97.556z" fill="#afe6ff"/><g><ellipse cx="364.631" cy="306.038" fill="#fac855" rx="24.398" ry="24.399" transform="matrix(.383 -.924 .924 .383 -57.649 525.798)"/></g><g><path d="m493.653 54.971h-86.197c-7.584 0-13.732-6.148-13.732-13.732s6.148-13.732 13.732-13.732h86.197c7.584 0 13.732 6.148 13.732 13.732s-6.148 13.732-13.732 13.732z" fill="#6c9baa"/></g><path d="m0 409.297v75.145h275.665v-51.223h5.433c6.606 0 11.961-5.355 11.961-11.961 0-6.606-5.355-11.961-11.961-11.961z" fill="#6c9baa"/><path d="m483.899 332.674h-66.691c-4.952 0-8.966 4.014-8.966 8.966v24.466c0 4.952 4.014 8.966 8.966 8.966h66.691c4.952 0 8.966-4.014 8.966-8.966v-24.466c0-4.952-4.014-8.966-8.966-8.966z" fill="#b4d7dc"/><path id="XMLID_4834_" d="m83.769 157.699c-1.478-8.078-8.028-13.917-15.641-13.917-9.804 0-16.7 0-27.581 0-7.629 0-14.16 5.822-15.641 13.917l-24.38 133.243c-.835 4.563 2.417 8.765 6.65 8.765h94.323c4.273 0 7.48-4.228 6.65-8.765z" fill="#ff6473"/><ellipse cx="61.714" cy="108.366" fill="#ffb69e" rx="27.359" ry="27.359" transform="matrix(.987 -.16 .16 .987 -16.561 11.285)"/><g id="XMLID_4765_" fill="#ffb69e"><path d="m67.241 156.506c-2.829-6.236-10.177-8.995-16.413-6.167-6.235 2.83-8.996 10.178-6.167 16.413l3.614 7.965"/><path d="m122.658 237.862-33.653-33.394-8.794-19.381-14.819-.937-7.717 11.282 9.69 21.356c.622 1.371 1.489 2.617 2.558 3.678l35.27 34.997c4.862 4.825 12.711 4.792 17.533-.068 4.823-4.86 4.792-12.709-.068-17.533z"/></g><g id="XMLID_388_"><path d="m80.211 185.088-12.97-28.583c-2.829-6.236-10.177-8.995-16.413-6.167-6.235 2.83-8.996 10.178-6.167 16.413l13.014 28.681z" fill="#fa5565"/></g><path d="m194.102 142.921h-33.97c-10.245 0-18.551 8.305-18.551 18.551v103.664h71.071v-103.664c0-10.245-8.305-18.551-18.55-18.551z" fill="#64afff"/><ellipse cx="183.142" cy="106.248" fill="#ffb69e" rx="29.51" ry="29.51" transform="matrix(.383 -.924 .924 .383 14.896 234.79)"/><path d="m272.346 276.358h-34.589c-6.773 0-12.263 5.49-12.263 12.263v96.413c0 6.773 5.491 12.263 12.263 12.263h34.589c6.773 0 12.263-5.49 12.263-12.263v-96.413c0-6.773-5.49-12.263-12.263-12.263z" fill="#1c9585"/><g id="XMLID_4798_"><path d="m151.034 183.919c-.12 0-14.313-4.733-14.313-4.733l-14.907 13.242c-1.718 1.526-3.019 3.466-3.778 5.635l-16.863 48.132c-2.467 7.043 1.242 14.753 8.285 17.221 7.009 2.457 14.741-1.207 17.221-8.285l15.705-44.825 13.246-11.767z" fill="#ffb69e"/></g><g id="XMLID_389_"><path d="m182.432 156.654c-4.957-5.579-13.496-6.084-19.077-1.128l-26.634 23.66 18.861 19.299c.034 0 .063.009.097.01l25.626-22.764c5.578-4.956 6.083-13.497 1.127-19.077z" fill="#4699f2"/></g><path d="m419.834 122.472-48 114.485h42.558l48-114.485z" fill="#d2f0ff"/></g></svg>