<svg id="Capa_1" enable-background="new 0 0 512.405 512.405" height="512" viewBox="0 0 512.405 512.405" width="512" xmlns="http://www.w3.org/2000/svg"><g fill="#373c41"><circle cx="75.926" cy="428.608" r="8.113"/><circle cx="50.536" cy="428.608" r="8.113"/><path d="m68.426 272.086h15v48.505h-15z"/></g><path d="m119.669 438.189c-8.708 0-15.78-7.045-15.806-15.759l-.383-126.321c-.026-8.73 7.029-15.829 15.759-15.855h.049c8.708 0 15.78 7.045 15.806 15.759l.383 126.322c.026 8.73-7.029 15.828-15.759 15.855-.016-.001-.033-.001-.049-.001z" fill="#748488"/><path d="m158.744 438.189c-8.73.001-15.808-7.076-15.808-15.806l-.011-141.49c0-8.73 7.076-15.808 15.806-15.808 8.73-.001 15.808 7.076 15.808 15.806l.011 141.49c0 8.729-7.076 15.807-15.806 15.808z" fill="#55696e"/><path d="m174.55 294.559h-71.071v-103.664c0-10.245 8.305-18.551 18.551-18.551h33.97c10.245 0 18.551 8.305 18.551 18.551v103.664z" fill="#ffda52"/><circle cx="145.142" cy="133.671" fill="#ba6746" r="29.51"/><path d="m0 436.72v75.146h217.665v-51.223h10.983c3.541 0 6.411-2.87 6.411-6.411v-11.101c0-3.541-2.87-6.411-6.411-6.411z" fill="#a5c8cd"/><path d="m347.514.539h-347.514v30h13.087v39.063c0 4.142 3.358 7.5 7.5 7.5h37.895c4.142 0 7.5-3.358 7.5-7.5v-39.063h281.533c8.284 0 15-6.716 15-15s-6.717-15-15.001-15zm-296.533 61.563h-22.894v-31.563h22.895v31.563z" fill="#a5c8cd"/><circle cx="39.534" cy="89.81" fill="#c8e6eb" r="39.534"/><path d="m55.189 95.81h-15.655c-3.313 0-6-2.686-6-6v-23.744c0-3.314 2.687-6 6-6s6 2.686 6 6v17.744h9.655c3.313 0 6 2.686 6 6s-2.686 6-6 6z" fill="#46738c"/><path d="m80.525 424.72h-34.589c-6.773 0-12.263-5.491-12.263-12.263v-96.413c0-6.773 5.491-12.263 12.263-12.263h34.589c6.773 0 12.263 5.491 12.263 12.263v96.413c.001 6.773-5.49 12.263-12.263 12.263z" fill="#a56941"/><path d="m72.28 288.721c-7.043-2.468-10.752-10.177-8.285-17.221l16.863-48.133c.76-2.169 2.061-4.108 3.779-5.635l18.688-16.601 18.675 1.735-.982 18.697-15.814 14.048-15.704 44.824c-2.47 7.052-10.184 10.75-17.22 8.286z" fill="#ba6746"/><path d="m145.254 181.958c-4.958-5.58-13.499-6.084-19.077-1.128l-22.853 20.301 17.676 20.411c.013 0 .025.002.038.002l23.087-20.509c5.58-4.957 6.085-13.498 1.129-19.077z" fill="#f2c41b"/><path d="m509.202 347.973c0 25.149-20.387 45.536-45.536 45.536h-158.904c-25.149 0-45.536-20.387-45.536-45.536v-155.827c0-25.149 20.387-45.536 45.536-45.536h158.903c25.149 0 45.536 20.387 45.536 45.536v155.827z" fill="#e64937"/><path d="m465.755 286.134h-163.082c-7.93 0-14.358-6.428-14.358-14.358v-70.802c0-7.93 6.428-14.358 14.358-14.358h163.082c7.93 0 14.358 6.428 14.358 14.358v70.802c0 7.93-6.428 14.358-14.358 14.358z" fill="#6ee1ff"/><circle cx="309.524" cy="346.183" fill="#ffebb4" r="21.209"/><circle cx="458.904" cy="345.769" fill="#ffebb4" r="21.209"/><path d="m477 500.773h35.405l-45.104-92.636h-35.405l8.666 17.799h-112.696l8.666-17.799h-35.405l-45.104 92.636h35.405l6.99-14.356h171.592zm-168.895-34.251 10.074-20.691h132.07l10.074 20.691z" fill="#373c41"/><path d="m421.678 127.94h-74.928c-6.593 0-11.937-5.344-11.937-11.937s5.344-11.937 11.937-11.937h74.928c6.593 0 11.937 5.344 11.937 11.937s-5.344 11.937-11.937 11.937z" fill="#55696e"/><path d="m419.161 393.509h-69.895c-3.776 0-6.838-3.061-6.838-6.838v-15.671c0-3.776 3.061-6.838 6.838-6.838h69.895c3.776 0 6.838 3.061 6.838 6.838v15.671c0 3.777-3.061 6.838-6.838 6.838z" fill="#c8462d"/><path d="m295.969 284.431c2.012 1.085 4.314 1.703 6.76 1.703h42.287l72.321-99.518h-50.28z" fill="#fff"/><path d="m357.686 286.134h25.794l72.131-99.518h-25.794z" fill="#fff"/></svg>