<svg id="Layer_1" enable-background="new 0 0 512 512" height="512" viewBox="0 0 512 512" width="512" xmlns="http://www.w3.org/2000/svg"><g><path d="m159.6 431.667h-144.6c-8.284 0-15-6.716-15-15v-321.334c0-8.284 6.716-15 15-15h144.6c8.284 0 15 6.716 15 15v321.333c0 8.285-6.716 15.001-15 15.001z" fill="#ffc85a"/><path d="m159.6 80.333h-72.3v351.333h72.3c8.284 0 15-6.716 15-15v-321.333c0-8.284-6.716-15-15-15z" fill="#ff9355"/><path d="m497 254.933h-353.475c-6.455 0-12.186-4.129-14.229-10.252s.06-12.866 5.221-16.742c6.407-4.812 10.082-12.152 10.082-20.139 0-7.986-3.675-15.327-10.083-20.14-5.161-3.876-7.263-10.62-5.22-16.742s7.774-10.251 14.229-10.251h353.475c8.284 0 15 6.716 15 15v64.267c0 8.283-6.716 14.999-15 14.999z" fill="#f5f5f5"/><path d="m134.518 227.939c-5.161 3.876-7.264 10.619-5.221 16.742s7.773 10.252 14.229 10.252h353.474c8.284 0 15-6.716 15-15v-32.133h-367.4c0 7.987-3.675 15.327-10.082 20.139z" fill="#dedcde"/><path d="m119.434 262.967c-30.419 0-55.167-24.748-55.167-55.167s24.748-55.167 55.167-55.167 55.166 24.748 55.166 55.167-24.747 55.167-55.166 55.167z" fill="#352e2f"/><g fill="#ff0032"><path d="m500.621 161.125c-1.162-.288-2.37-.458-3.621-.458h-38.347l-94.267 94.267h42.426z"/><path d="m404.68 160.667h-42.426l-94.267 94.266h42.426z"/><path d="m308.279 160.667h-42.425l-94.267 94.266h42.426z"/></g><path d="m119.434 262.967c30.419 0 55.166-24.748 55.166-55.167h-110.333c0 30.419 24.748 55.167 55.167 55.167z" fill="#0a0400"/><path d="m406.813 254.933 47.133-47.133h-42.426l-47.133 47.133z" fill="#c8003c"/><path d="m310.413 254.933 47.133-47.133h-42.425l-47.134 47.133z" fill="#c8003c"/><path d="m214.013 254.933 47.133-47.133h-42.426l-47.133 47.133z" fill="#c8003c"/></g></svg>