<svg id="Capa_1" enable-background="new 0 0 497 497" height="512" viewBox="0 0 497 497" width="512" xmlns="http://www.w3.org/2000/svg"><g><g><g><path d="m471.746 497h-446.492c-13.947 0-25.254-11.307-25.254-25.254v-446.492c0-13.947 11.307-25.254 25.254-25.254h446.492c13.947 0 25.254 11.307 25.254 25.254v446.492c0 13.947-11.307 25.254-25.254 25.254z" fill="#f7f7f7"/></g></g><g><g><path d="m28.652 452.037v-407.074c0-9.008 7.303-16.311 16.311-16.311h407.074c9.008 0 16.311 7.303 16.311 16.311v407.075c0 9.008-7.303 16.311-16.311 16.311h-407.075c-9.008-.001-16.31-7.303-16.31-16.312z" fill="#5392f9"/></g></g><path d="m452.037 28.652h-30c9.008 0 16.311 7.303 16.311 16.311v407.075c0 9.008-7.303 16.311-16.311 16.311h30c9.008 0 16.311-7.303 16.311-16.311v-407.075c0-9.009-7.303-16.311-16.311-16.311z" fill="#4981f8"/><g><g><path d="m153.645 109.941c0-9.117 8.248-17.365 21.272-17.365h87.26c55.134 0 98.547 26.482 98.547 97.679v2.605c0 71.197-44.715 98.547-102.02 98.547h-48.622v100.718c0 11.722-14.326 17.799-28.218 17.799-14.326 0-28.218-6.078-28.218-17.799v-282.184zm56.436 32.126v105.059h48.622c28.218 0 45.583-16.063 45.583-49.925v-5.21c0-33.862-17.365-49.925-45.583-49.925h-48.622z" fill="#f7f7f7"/></g></g><g><g><path d="m262.177 92.576h-30c55.134 0 98.547 26.482 98.547 97.679v2.605c0 71.197-44.715 98.547-102.02 98.547h30c57.305 0 102.02-27.35 102.02-98.547v-2.605c-.001-71.197-43.413-97.679-98.547-97.679z" fill="#e8e8e8"/></g></g></g></svg>