<svg id="Layer_5" enable-background="new 0 0 64 64" height="512" viewBox="0 0 64 64" width="512" xmlns="http://www.w3.org/2000/svg"><g><g><g><path d="m45 42h8v4h-8z" fill="#ffeaa7"/></g><g><path d="m59 42v4c0 1.1-.9 2-2 2h-2c-1.1 0-2-.9-2-2v-4c0-1.1.9-2 2-2h2c1.1 0 2 .9 2 2z" fill="#fcd770"/></g><g><path d="m58 6.14v12.04c-3.13.28-6.17.89-9.08 1.8l-4.6-11.11-.01-.02c4.35-1.45 8.94-2.37 13.69-2.71z" fill="#dfb28b"/></g><g><path d="m36.93 11.93 4.61 11.11c-2.75 1.44-5.32 3.17-7.69 5.15l-8.51-8.5-.02-.02c3.52-3.03 7.41-5.65 11.61-7.75z" fill="#dfb28b"/></g><g><path d="m19.69 25.34 8.5 8.51c-1.98 2.37-3.71 4.94-5.15 7.69l-11.11-4.61h-.01c2.1-4.2 4.72-8.09 7.75-11.61z" fill="#dfb28b"/></g><g><path d="m8.87 44.32 11.11 4.6c-.91 2.91-1.52 5.95-1.8 9.08h-12.04c.34-4.75 1.26-9.34 2.71-13.69z" fill="#dfb28b"/></g><g><path d="m6 26h8c-3.29 4.38-5.99 9.22-8 14.41z" fill="#dfb28b"/></g><g><path d="m22 17.27v.01c-.27.23-.53.47-.79.72h-.01-15.2v-6h16z" fill="#dfb28b"/></g><g><path d="m6 1h16v3h-16z" fill="#dfb28b"/></g><g><path d="m6 4h16v8h-16z" fill="#b27946"/></g><g><path d="m6 18h15.2c-2.63 2.45-5.04 5.12-7.2 8h-8z" fill="#b27946"/></g><g><path d="m6.14 58h12.04c-.12 1.32-.18 2.65-.18 4h-12c0-1.34.05-2.68.14-4z" fill="#b27946"/></g><g><path d="m11.93 36.93 11.11 4.61c-1.24 2.34-2.26 4.81-3.06 7.38l-11.11-4.6-.02-.01c.85-2.55 1.88-5.01 3.07-7.38z" fill="#b27946"/></g><g><path d="m25.34 19.69 8.51 8.5c-2.06 1.71-3.95 3.6-5.66 5.66l-8.5-8.51-.02-.02c1.76-2.01 3.64-3.89 5.65-5.65z" fill="#b27946"/></g><g><path d="m44.32 8.87 4.6 11.11c-2.57.8-5.04 1.82-7.38 3.06l-4.61-11.11v-.01c2.37-1.19 4.83-2.22 7.38-3.07z" fill="#b27946"/></g><g><path d="m62 6v12c-1.35 0-2.68.06-4 .18v-12.04c1.32-.09 2.66-.14 4-.14z" fill="#b27946"/></g><g fill="#aab2bd"><path d="m26 14v-13h-4v3 8 5.27.01c-.27.23-.53.47-.79.72h-.01c-2.63 2.45-5.04 5.12-7.2 8-3.29 4.38-5.99 9.22-8 14.41v-14.41-8-6-8-3h-4v61h4c0-1.34.05-2.68.14-4 .34-4.75 1.26-9.34 2.71-13.69.85-2.55 1.88-5.01 3.07-7.38 2.1-4.2 4.72-8.09 7.75-11.61 1.76-2.01 3.64-3.89 5.65-5.65 3.52-3.03 7.41-5.65 11.61-7.75 2.37-1.19 4.83-2.22 7.38-3.07 4.35-1.45 8.94-2.37 13.69-2.71 1.32-.09 2.66-.14 4-.14v-4c-13.51 0-25.97 4.47-36 12z"/><path d="m48.92 19.98c-2.57.8-5.04 1.82-7.38 3.06-2.75 1.44-5.32 3.17-7.69 5.15-2.06 1.71-3.95 3.6-5.66 5.66-1.98 2.37-3.71 4.94-5.15 7.69-1.24 2.34-2.26 4.81-3.06 7.38-.91 2.91-1.52 5.95-1.8 9.08-.12 1.32-.18 2.65-.18 4h4 17 6v-16-4-2h-6v4h-12.72c6.58-13.05 20.1-22 35.72-22v-4c-1.35 0-2.68.06-4 .18-3.13.28-6.17.89-9.08 1.8z"/></g></g><path d="m62 1c-13.017 0-25.084 4.111-35 11.085v-11.085h-2v12.548c-.677.518-1.346 1.045-2 1.59v-14.138h-2v2h-14v-2h-2v39.307c-.771 2.018-1.444 4.084-2 6.198v-45.505h-2v62h37 1 7v-16h6.184c.414 1.161 1.514 2 2.816 2h2c1.654 0 3-1.346 3-3v-4c0-1.654-1.346-3-3-3h-2c-1.302 0-2.402.839-2.816 2h-6.184v-2h-8v4h-10.041c6.68-11.921 19.431-20 34.041-20h1v-22zm-1 4.025c-30.634.532-55.443 25.341-55.975 55.975h-2c.532-31.739 26.235-57.462 57.975-57.992zm-53.915 53.975h10.026c-.044.663-.071 1.33-.086 2h-10c.012-.669.024-1.337.06-2zm10.199-2h-10.046c.354-3.911 1.108-7.709 2.241-11.343l9.299 3.852c-.701 2.42-1.208 4.922-1.494 7.491zm2.095-9.407-9.257-3.834c.669-1.896 1.428-3.75 2.292-5.545l9.264 3.837c-.885 1.784-1.652 3.635-2.299 5.542zm3.231-7.321-9.281-3.844c1.809-3.429 3.963-6.647 6.427-9.601l7.107 7.107c-1.588 1.984-3.015 4.101-4.253 6.338zm5.543-7.877-7.084-7.084c1.337-1.49 2.753-2.906 4.243-4.243l7.083 7.084c-1.506 1.32-2.923 2.737-4.242 4.243zm5.78-5.532-7.107-7.108c2.954-2.464 6.172-4.618 9.601-6.427l3.845 9.281c-2.237 1.239-4.354 2.666-6.339 4.254zm8.118-5.185-3.837-9.263c1.795-.865 3.649-1.624 5.545-2.292l3.834 9.257c-1.907.646-3.758 1.412-5.542 2.298zm7.458-2.901-3.852-9.298c3.634-1.133 7.432-1.887 11.343-2.241v10.047c-2.569.285-5.07.792-7.491 1.492zm9.491-11.692c.663-.036 1.331-.047 2-.06v10c-.67.015-1.337.042-2 .086zm-45.452 17.915h-6.548v-6h11.778c-1.871 1.881-3.615 3.889-5.23 6zm7.317-8h-13.865v-4h14v3.871c-.046.042-.089.087-.135.129zm.135-12v6h-14v-6zm-14 22h5.085c-1.917 2.725-3.628 5.605-5.085 8.631zm16.025 34c.034-1.352.137-2.686.306-4h14.669v4zm30.975-19c0-.551.448-1 1-1h2c.552 0 1 .449 1 1v4c0 .551-.448 1-1 1h-2c-.552 0-1-.449-1-1zm-2 1v2h-6v-2zm-12-2h4v20h-4zm-2 4v10h-14.358c.641-3.518 1.746-6.876 3.265-10zm-16.975 16h-2c.528-22.915 19.06-41.447 41.975-41.975v1.987c-21.814.524-39.449 18.174-39.975 39.988z"/></g></svg>