<?xml version="1.0" encoding="iso-8859-1"?>
<!-- Generator: Adobe Illustrator 21.0.0, SVG Export Plug-In . SVG Version: 6.00 Build 0)  -->
<svg version="1.1" id="Capa_1" xmlns="http://www.w3.org/2000/svg" xmlns:xlink="http://www.w3.org/1999/xlink" x="0px" y="0px"
	 viewBox="0 0 602.95 602.95" style="enable-background:new 0 0 602.95 602.95;" xml:space="preserve">
<g>
	<g>
		<g>
			<g id="filled_outline_33_">
				<path style="fill:#88B337;" d="M571.835,471.399L452.014,351.578l-5.022,5.022c-8.317,8.317-21.817,8.317-30.134,0
					s-8.317-21.817,0-30.134l0,0l5.022-5.022l-30.134-30.134L291.301,391.756l30.134,30.134l5.022-5.022
					c8.317-8.317,21.817-8.317,30.134,0s8.317,21.817,0,30.134l-5.022,5.022l119.821,119.821c3.636,3.606,7.644,6.81,11.963,9.552
					l98.035-98.035C578.645,479.043,575.441,475.035,571.835,471.399z"/>
				<path style="fill:#DADDDF;" d="M581.387,483.362l-98.035,98.035c32.966,21.174,76.861,11.622,98.035-21.345
					C596.394,536.699,596.394,506.726,581.387,483.362z"/>
				<polygon style="fill:#CFD2D4;" points="130.589,90.421 120.544,50.242 50.233,10.064 10.054,50.242 50.233,120.554 
					90.411,130.599 321.435,361.623 361.613,321.445 				"/>
				<path style="fill:#DADDDF;" d="M589.242,93.816l-66.917,66.917l-60.267-20.089l-20.089-60.267l66.917-66.917
					C450.005-1.567,390.099,33.99,375.073,92.871c-4.55,17.849-4.55,36.552,0,54.401l-227.81,227.81
					c-59.484-15.097-119.942,20.873-135.039,80.356C-2.873,514.922,33.097,575.38,92.58,590.477
					c59.484,15.097,119.942-20.872,135.039-80.356c4.55-17.94,4.55-36.743,0-54.682l227.81-227.81
					c58.921,14.986,118.827-20.631,133.813-79.553C593.772,130.277,593.772,111.625,589.242,93.816z M150.678,532.38H90.411
					l-30.134-50.223l30.134-50.223h60.267l30.134,50.223L150.678,532.38z"/>
				<path style="fill:#CFD2D4;" d="M592.637,521.622c-0.01-13.57-3.917-26.849-11.25-38.26l-28.928,28.928v73.235
					C577.008,573.703,592.627,548.873,592.637,521.622z"/>
				<path d="M1.336,55.265l40.178,70.312c1.356,2.381,3.626,4.098,6.278,4.761l37.486,9.372l128.57,128.57l14.203-14.203
					L97.472,123.497c-1.286-1.286-2.893-2.2-4.661-2.642l-36.02-9.04L22.58,51.92l29.33-29.33l59.926,34.242l9.04,36.02
					c0.442,1.768,1.356,3.385,2.642,4.671l130.579,130.579l14.203-14.203l-128.57-128.57l-9.372-37.466
					c-0.663-2.662-2.381-4.932-4.761-6.288L55.285,1.396c-3.927-2.23-8.859-1.567-12.053,1.617L3.053,43.191
					C-0.181,46.365-0.884,51.317,1.336,55.265z"/>
				
					<rect x="145.092" y="291.309" transform="matrix(0.7071 -0.7071 0.7071 0.7071 -124.8259 301.3498)" width="312.512" height="20.089"/>
				<path d="M159.286,426.761c-1.818-3.023-5.083-4.872-8.608-4.872H90.411c-3.526,0-6.79,1.848-8.608,4.872l-30.134,50.223
					c-1.908,3.184-1.908,7.162,0,10.346l30.134,50.223c1.818,3.023,5.083,4.872,8.608,4.872h60.267c3.526,0,6.79-1.848,8.608-4.872
					l30.134-50.223c1.908-3.184,1.908-7.162,0-10.346L159.286,426.761z M144.993,522.335H96.096l-24.107-40.178l24.107-40.178
					h48.897l24.107,40.178L144.993,522.335z"/>
				<path d="M482.147,241.088c66.344,0.221,120.303-53.377,120.524-119.721c0.03-10.095-1.205-20.159-3.686-29.943
					c-1.336-5.384-6.79-8.658-12.174-7.322c-1.768,0.442-3.385,1.356-4.671,2.642l-62.527,62.487l-49.61-16.533l-16.543-49.6
					l62.527-62.537c3.917-3.927,3.917-10.286-0.01-14.203c-1.296-1.296-2.923-2.21-4.701-2.652
					c-64.335-16.292-129.695,22.65-145.987,86.986c-2.471,9.763-3.706,19.798-3.676,29.862c0.02,7.905,0.844,15.79,2.441,23.534
					L144.079,364.064c-7.744-1.597-15.629-2.411-23.534-2.441c-66.565,0-120.534,53.969-120.534,120.534
					s53.969,120.534,120.534,120.534s120.534-53.969,120.534-120.534c-0.02-7.905-0.844-15.79-2.441-23.534l52.663-52.663
					l23.032,23.032c3.917,3.917,10.286,3.917,14.203,0l5.022-5.022c4.41-4.379,11.521-4.379,15.931,0
					c4.399,4.389,4.41,11.511,0.02,15.911c-0.01,0.01-0.01,0.01-0.02,0.02l-5.022,5.022c-3.917,3.917-3.917,10.286,0,14.203
					l119.821,119.821c31.52,31.801,82.847,32.032,114.648,0.522c31.801-31.52,32.032-82.847,0.522-114.648
					c-0.171-0.171-0.341-0.342-0.522-0.522L459.115,344.477c-3.917-3.917-10.286-3.917-14.203,0l-5.022,5.022
					c-4.41,4.379-11.521,4.379-15.931,0c-4.4-4.389-4.41-11.511-0.02-15.911c0.01-0.01,0.01-0.01,0.02-0.02l5.022-5.022
					c3.917-3.917,3.917-10.286,0-14.203l-23.032-23.032l52.663-52.663C466.357,240.245,474.242,241.058,482.147,241.088z
					 M521.612,582.602c-7.302-0.01-14.534-1.326-21.365-3.897l78.448-78.448c11.842,31.49-4.088,66.615-35.578,78.448
					C536.237,581.286,528.955,582.612,521.612,582.602z M407.818,321.545c-11.119,13.269-9.382,33.046,3.887,44.166
					c11.662,9.773,28.657,9.763,40.309-0.03l112.72,112.82c1.225,1.225,2.37,2.521,3.475,3.837l-85.881,85.881
					c-1.316-1.105-2.612-2.25-3.837-3.475l-112.81-112.82c11.119-13.269,9.382-33.047-3.887-44.166
					c-11.662-9.773-28.657-9.763-40.309,0.03l-16.071-16.071l86.333-86.202L407.818,321.545z M448.377,220.517l-227.86,227.82
					c-2.501,2.491-3.506,6.117-2.652,9.542c13.781,54.12-18.924,109.164-73.044,122.945
					c-54.12,13.771-109.164-18.924-122.945-73.044s18.924-109.164,73.044-122.945c16.373-4.168,33.529-4.168,49.901,0
					c3.425,0.834,7.041-0.171,9.542-2.652l227.81-227.82c2.491-2.491,3.495-6.117,2.642-9.542
					c-13.691-53.487,18.572-107.939,72.059-121.619c10.105-2.591,20.561-3.576,30.977-2.933l-52.985,53.005
					c-2.692,2.692-3.636,6.67-2.431,10.276l20.089,60.267c1.004,3.003,3.355,5.354,6.358,6.348l60.267,20.089
					c3.606,1.205,7.584,0.271,10.276-2.421l52.985-52.985c0.121,1.919,0.181,3.817,0.181,5.705
					c0.281,55.195-44.226,100.164-99.421,100.445c-8.538,0.04-17.035-1.004-25.302-3.124c-3.425-0.854-7.051,0.151-9.542,2.642
					C448.327,220.517,448.377,220.517,448.377,220.517z"/>
				
					<rect x="451.998" y="391.047" transform="matrix(0.7071 -0.7071 0.7071 0.7071 -191.4046 462.0506)" width="20.089" height="142.048"/>
			</g>
		</g>
	</g>
</g>
<g>
</g>
<g>
</g>
<g>
</g>
<g>
</g>
<g>
</g>
<g>
</g>
<g>
</g>
<g>
</g>
<g>
</g>
<g>
</g>
<g>
</g>
<g>
</g>
<g>
</g>
<g>
</g>
<g>
</g>
</svg>
